/vscmnt/brussel_pixiu_data/_data_brussel/112/vsc11236/PredSimResults/SUBJ09opt3D/trackIG/worker_01.mot
version=1
nRows=10
nColumns=50
inDegrees=yes
endheader
                time	         pelvis_tilt	         pelvis_list	     pelvis_rotation	           pelvis_tx	           pelvis_ty	           pelvis_tz	       hip_flexion_r	     hip_adduction_r	      hip_rotation_r	        knee_angle_r	       ankle_angle_r	         mtp_angle_r	       hip_flexion_l	     hip_adduction_l	      hip_rotation_l	        knee_angle_l	       ankle_angle_l	         mtp_angle_l	    lumbar_extension	      lumbar_bending	     lumbar_rotation	 ercspn_r/activation	 intobl_r/activation	 extobl_r/activation	    abd_r/activation	    add_r/activation	hamstrings_r/activation	bifemsh_r/activation	glut_max_r/activation	iliopsoas_r/activation	rect_fem_r/activation	  vasti_r/activation	gastroc_r/activation	 soleus_r/activation	tib_ant_r/activation	 ercspn_l/activation	 intobl_l/activation	 extobl_l/activation	    abd_l/activation	    add_l/activation	hamstrings_l/activation	bifemsh_l/activation	glut_max_l/activation	iliopsoas_l/activation	rect_fem_l/activation	  vasti_l/activation	gastroc_l/activation	 soleus_l/activation	tib_ant_l/activation	
          0.88876721	         -1.54511469	          0.55419934	         -4.01992360	          0.53326033	          1.00715013	          0.00969164	         -8.04080908	         -2.30496778	        -15.13181697	         -8.69699878	         14.50679960	         13.10498134	         20.21079431	         -0.93286086	        -11.47436056	         -0.98294585	          0.09787267	          0.21107626	        -15.06591288	          3.25335742	          4.63609605	          0.01000017	          0.01000016	          0.01000030	          0.07496672	          0.01000038	          0.02673119	          0.17446942	          0.03123742	          0.02824576	          0.01000038	          0.01000018	          0.17570462	          0.18500779	          0.01296286	          0.01000052	          0.19485239	          0.08229375	          0.01000003	          0.13163862	          0.02262751	          0.08105046	          0.01296255	          0.06708248	          0.05039888	          0.01535433	          0.01680428	          0.01296329	          0.26744933	
          0.90654256	         -1.63413790	          0.52064562	         -3.84142712	          0.54830342	          1.00479705	          0.00783113	         -8.49212268	         -2.50733902	        -15.64813271	         -9.50727487	         14.65268280	         14.26267069	         19.45693641	         -0.79629977	        -11.79779324	         -0.93446706	         -0.55315550	          0.20794912	        -14.64988038	          2.76039177	          4.60250125	          0.01000212	          0.01000026	          0.01000056	          0.05783336	          0.01296084	          0.03900762	          0.13459584	          0.03655138	          0.02179048	          0.01000033	          0.01000022	          0.17296796	          0.19017534	          0.01000027	          0.01000040	          0.19199254	          0.06348578	          0.03668084	          0.10155309	          0.02880428	          0.09816414	          0.01000010	          0.05175101	          0.03888037	          0.01184527	          0.01296377	          0.01000060	          0.30672647	
          0.92431790	         -1.71339165	          0.52573187	         -3.61802261	          0.56357591	          1.00300881	          0.00586136	         -8.89677940	         -2.76110195	        -16.26870042	        -10.41640940	         14.54626636	         15.52405605	         18.75740166	         -0.64321264	        -12.32827031	         -0.97678123	         -1.29892613	          0.19026835	        -14.21441365	          2.19770141	          4.55559186	          0.01000019	          0.01000008	          0.01000064	          0.04634687	          0.01000036	          0.03940678	          0.10383464	          0.03282431	          0.01681050	          0.01000039	          0.01000027	          0.15896012	          0.18511111	          0.01000013	          0.01000077	          0.15383980	          0.04897631	          0.06199811	          0.07918844	          0.04568496	          0.07572940	          0.01577834	          0.03992349	          0.02999440	          0.01905196	          0.01000108	          0.01000014	          0.33618976	
          0.94209325	         -1.78495692	          0.54810140	         -3.35078684	          0.57879278	          1.00210752	          0.00379047	         -9.17460047	         -3.06058004	        -16.98872525	        -11.52942421	         14.11644131	         16.89613480	         18.17498253	         -0.50047752	        -12.99061913	         -1.26283498	         -1.87751302	          0.16933188	        -13.79151145	          1.59595058	          4.49564190	          0.01020160	          0.01000008	          0.01000025	          0.03575445	          0.01000071	          0.04746139	          0.08010367	          0.02682440	          0.01296890	          0.01000052	          0.01000046	          0.12431031	          0.17154318	          0.01000009	          0.01000109	          0.11868016	          0.03778293	          0.08296221	          0.06109075	          0.04911706	          0.05842252	          0.03546834	          0.03079911	          0.02313929	          0.01469986	          0.01000032	          0.01000015	          0.34298477	
          0.95986859	         -1.84955109	          0.58946609	         -3.05852359	          0.59375862	          1.00233603	          0.00163579	         -9.23026984	         -3.44178232	        -17.76713055	        -12.99704907	         13.33835714	         18.36253051	         17.69052783	         -0.35242460	        -13.59181964	         -1.75334424	         -2.19183411	          0.14808937	        -13.39944958	          0.96027624	          4.42681072	          0.04225436	          0.01000009	          0.01000021	          0.02758289	          0.01059446	          0.06085157	          0.06179632	          0.03188200	          0.01000597	          0.01000052	          0.01000056	          0.09589958	          0.14655885	          0.01000009	          0.01000146	          0.09155615	          0.02914777	          0.08572796	          0.04712956	          0.05072330	          0.04507213	          0.06741064	          0.02376009	          0.01785091	          0.01296127	          0.01000111	          0.01000050	          0.32877145	
          0.97764393	         -1.90500945	          0.62758920	         -2.75221018	          0.60846420	          1.00368366	         -0.00058448	         -9.03158635	         -3.90336478	        -18.58661800	        -14.88094539	         12.20517274	         19.88845095	         17.23935124	         -0.20720354	        -14.03199567	         -2.33986797	         -2.25723476	          0.13672035	        -13.03316706	          0.32339178	          4.35497322	          0.03259805	          0.01000088	          0.01000025	          0.02127893	          0.01296244	          0.07410522	          0.04767305	          0.03193689	          0.01000058	          0.01000026	          0.02103940	          0.07398201	          0.11306331	          0.01000008	          0.01000062	          0.07063125	          0.02248618	          0.08589246	          0.03696689	          0.05773821	          0.03478631	          0.06492341	          0.01832983	          0.01377118	          0.01000480	          0.01000403	          0.01000082	          0.30442352	
          0.99541928	         -1.94731195	          0.62587443	         -2.43648370	          0.62298997	          1.00586052	         -0.00283324	         -8.60161115	         -4.41396254	        -19.42032437	        -17.16399123	         10.77899798	         21.37744482	         16.78042857	         -0.10003508	        -14.32173997	         -2.95010597	         -2.18563171	          0.14150843	        -12.67982182	         -0.27189882	          4.27936079	          0.02514825	          0.03012826	          0.01000021	          0.01641572	          0.01000117	          0.07967904	          0.03677762	          0.02463785	          0.01000047	          0.01000023	          0.02202987	          0.05707364	          0.08722302	          0.01000008	          0.01000096	          0.05448869	          0.01734714	          0.08180900	          0.04703411	          0.06542831	          0.03102613	          0.06747847	          0.01414064	          0.01062387	          0.01000246	          0.01000103	          0.01000030	          0.27801075	
          1.01319462	         -1.97210494	          0.54703920	         -2.12145800	          0.63737126	          1.00851260	         -0.00511424	         -7.91874206	         -4.95991282	        -20.21417844	        -19.91133732	          9.13249880	         22.73753801	         16.28173712	         -0.06658615	        -14.49907244	         -3.52464728	         -2.04764184	          0.17119931	        -12.33527621	         -0.77443130	          4.19512924	          0.01940126	          0.05389797	          0.01000020	          0.01266399	          0.01000052	          0.07899933	          0.02837234	          0.01900696	          0.01000044	          0.01000023	          0.01699511	          0.04402963	          0.06728845	          0.01000006	          0.01000204	          0.04203546	          0.01338265	          0.07875012	          0.03628581	          0.07052380	          0.02393978	          0.07445329	          0.01090891	          0.01000016	          0.01000215	          0.01000089	          0.01000026	          0.25299488	
          1.03096997	         -1.97615436	          0.36957819	         -1.82366165	          0.65158154	          1.01135964	         -0.00743615	         -6.93671896	         -5.55015333	        -20.94165625	        -23.20563019	          7.28718555	         23.88215247	         15.71561118	         -0.12546033	        -14.57778955	         -4.00815935	         -1.88172589	          0.24744924	        -12.00235520	         -1.14926884	          4.09793782	          0.01788588	          0.07500686	          0.01000019	          0.01000003	          0.01000029	          0.07575654	          0.02188822	          0.01466298	          0.01000059	          0.01000019	          0.01311095	          0.03396679	          0.05190987	          0.01000018	          0.01000319	          0.03242839	          0.01032424	          0.08320382	          0.02799323	          0.07304553	          0.01846979	          0.07575468	          0.01000021	          0.01000021	          0.01000184	          0.01000074	          0.01000025	          0.23018631	
          1.04874531	         -1.95725393	          0.08317711	         -1.55798281	          0.66557812	          1.01419886	         -0.00978426	         -5.63625437	         -6.19584346	        -21.63463681	        -27.08367910	          5.41905725	         24.38219481	         15.06170328	         -0.28642483	        -14.57733240	         -4.35871254	         -1.70379734	          0.38389001	        -11.68435335	         -1.37786292	          3.98274812	          0.02614607	          0.09235724	          0.01000365	          0.01000002	          0.02982692	          0.06673896	          0.01688811	          0.01131182	          0.01001220	          0.01000015	          0.01011450	          0.02620380	          0.04004602	          0.03947407	          0.01000045	          0.02501699	          0.01000014	          0.09407529	          0.02159575	          0.07189492	          0.01424932	          0.07969535	          0.01000021	          0.01000025	          0.01087838	          0.01000062	          0.01000024	          0.21101760	
